<svg xmlns="http://www.w3.org/2000/svg" width="1000" height="1000" viewBox="0 0 1000 1000">
  <defs>
    <style>
      .cls-1 {
        fill-rule: evenodd;
      }
    </style>
  </defs>
  <path id="Fond_2" data-name="Fond 2" class="cls-1" d="M11,230.819H988.724v1.486c-14.206,13.732-25.226,31.579-37.148,47.549-23.006,30.817-49.624,59.322-72.809,90.64-14.833,20.035-34.137,38.03-49.035,57.95-44.351,59.3-92.633,114.331-136.7,173.851-9.172,12.387-22,23.253-31.2,35.661-35.068,47.3-73.462,90.878-108.471,138.189-16.826,22.739-41.678,42.891-54.978,68.352l-1.486-1.486c-15.438-11.2-36.846-45.806-49.035-62.408-35.721-48.657-76.9-93.575-112.928-142.647-12.457-16.968-29.134-32.076-41.606-49.034C231.66,505.077,163.529,427.365,101.64,343.748,73.27,305.417,36.876,271.162,11,230.819Z"/>
</svg>
