<svg xmlns="http://www.w3.org/2000/svg" width="1000" height="1000" viewBox="0 0 1000 1000">
  <defs>
    <style>
      .cls-1 {
        fill-rule: evenodd;
      }
    </style>
  </defs>
  <path id="Fond_2" data-name="Fond 2" class="cls-1" d="M486,82c87.375-1.054,138.487,38.484,164,99,9.11,21.608,19.8,60.164,12,92-3.634,14.833-7.329,29.016-13,42-16.649,38.12-50.994,68.118-90,84-13.06,5.317-28.108,6.759-43,10-24.012,5.226-59.6-5.106-74-11-51.807-21.207-83.107-54.783-100-111-5.346-17.791-9.3-47.238-4-69,2.389-9.811,4.241-20.789,8-30,17.414-42.672,48.135-75.9,90-94,10.515-4.545,22.5-6.991,34-10C474.666,82.779,482.249,84.32,486,82ZM364,417l28,1c4.806,1.678,8.12,8.121,12,11a151.246,151.246,0,0,0,29,17c57.649,24.543,135.963,6.377,168-28,44.07-.483,65.766,14.446,92,31,62.557,39.474,107.542,101.651,128,183,2.259,8.981,2.313,18.4,2,29q-0.5,4-1,8c1.521,7.177.8,16.327,0,25v63c-8.009,4.986-14.913,12.873-22,19-1.9,1.642-7.007,5.963-8,5-1.481,2.041-1.947,4.683-4,6-28.6,18.346-62.509,38.148-98,53-24.273,10.157-50.11,11.971-78,19-20.181,5.086-39.778,3.832-61,9l-29,1c-12.639,2.768-38.4,3.089-51,0l-29-1c-12.547-2.888-26.529-.475-36-3-16.856-4.494-37.25-5.968-55-11-23.484-6.657-46.665-14-67-23a355.876,355.876,0,0,1-45-24c-3.77-2.339-8.44-2.49-12-5-10.5-7.4-20.654-17.334-31-25-5.621-4.165-22.344-14.376-25-20V731c-3.315-5.408,1.684-15.078,0-23-1.059-4.981-4.142-30.362-3-35,0.252-1.023,2.88-4.584,3-5q-0.5-2.5-1-5,0.5-13,1-26c2.493-10.284,9.238-28.8,7-34,5.235-2.457,12.309-25.569,16-34,8.682-19.832,22.628-39.054,35-56,21.834-29.907,52.889-54.344,85-74,11.133-6.814,24.866-12.362,36-18C354.392,418.776,360.113,419.621,364,417Z"/>
</svg>
