<svg xmlns="http://www.w3.org/2000/svg" width="1000" height="1000" viewBox="0 0 1000 1000">
  <defs>
    <style>
      .cls-1 {
        fill-rule: evenodd;
      }
    </style>
  </defs>
  <path id="Fond_1" data-name="Fond 1" class="cls-1" d="M135.776,640.756L679.289,304.728C741.261,266.409,795,219.459,844.642,241.3c11.321,4.98,30.543,15.492,37.35,35.692,8.649,25.664,5.825,52.435-9.152,72.672-10.343,13.977-33.864,25.641-52.333,37.058L713.336,452.978,284.65,718.014,211.5,763.238c-26.427,3.147-39.3,5.589-62.511-6.028-8.531-4.269-28.079-18.864-32.9-36.1-5.319-19.024-4.4-42.578,3.678-58.706C122.442,657.075,135.781,645.612,135.776,640.756Z"/>
  <path id="Fond_1-2" data-name="Fond 1" class="cls-1" d="M863.713,640.169L320.2,304.141c-61.972-38.319-115.708-85.269-165.353-63.431C143.526,245.69,124.3,256.2,117.5,276.4c-8.649,25.664-5.825,52.435,9.152,72.672,10.343,13.977,33.864,25.64,52.332,37.057L286.153,452.39,714.839,717.426l73.149,45.225c26.427,3.147,39.3,5.589,62.511-6.028,8.531-4.269,28.079-18.864,32.9-36.1,5.319-19.024,4.4-42.578-3.678-58.707C877.047,656.488,863.708,645.025,863.713,640.169Z"/>
</svg>
