<svg xmlns="http://www.w3.org/2000/svg" width="1000" height="1000" viewBox="0 0 1000 1000">
  <defs>
    <style>
      .cls-1 {
        fill-rule: evenodd;
      }
    </style>
  </defs>
  <path id="Fond_1" data-name="Fond 1" class="cls-1" d="M497,280c60.565-1.579,113.958,14.086,157,32,20.112,8.37,37.963,14.231,57,23,53.587,24.685,101.028,59.534,147,92,11.818,8.346,24.187,15.545,35,25,10.613,9.279,20.773,20.513,32,29,4.549,3.439,19.371,12.949,18,18-3.21,8.774-28.913,31.889-37,38-9.7,7.328-17.214,18.627-27,26-21.818,16.438-42.772,32.552-66,48-87.225,58.011-183.916,85.049-307,108-10.085,1.881-25.506-3.852-34-6l-22-3c-22.028-5.753-46.154-10.2-67-17-12.242-3.994-23.138-4.589-35-9-41.809-15.547-83.188-30.2-120-51-19.453-10.992-38.079-25.374-56-38-6.16-4.34-13.279-7.105-19-12-17.657-15.107-34.424-31.958-53-46-13.64-10.311-23.572-26.279-36-38v-2c6.558-4.2,10.963-11.428,17-16,18.3-13.86,34.6-30.564,53-44,58-42.341,119.606-83.592,189-114,35.029-15.349,72.851-25.813,113-36l43-6C484.658,279.762,492.905,282.607,497,280Zm-15,70c-3.363,2.274-6.96.714-12,2-9.945,2.538-22.4,4.7-32,9a164.4,164.4,0,0,0-83,83c-4.781,10.788-3.822,21.045-7,34-6.407,26.118,2.278,55.541,11,73,20.061,40.155,44.742,63.978,89,80,16.5,5.973,33.547,9,57,9h15c13.475-3.3,29.526-5.418,42-11a164.36,164.36,0,0,0,83-83c13.924-31.387,9.539-79.873-4-107-3.359-6.731-4.242-12.661-8-19-5.318-8.969-14.767-15.768-22-23C577.358,363.363,549.559,349.908,482,350Zm12,72c44.851-.7,89.39,40.27,71,90-8.621,23.312-29.11,39.729-55,46-12.3,2.979-24.673-2.3-32-5-31.686-11.667-57.214-46.233-41-89,5.206-13.73,19.424-28.56,32-35C476.137,425.345,487.345,426.522,494,422Z"/>
  <path id="Forme_1" data-name="Forme 1" class="cls-1" d="M202.645,826.256l62.023,41.57,544.218-705.6L746.7,123.937Z"/>
</svg>
