<svg xmlns="http://www.w3.org/2000/svg" width="1000" height="1000" viewBox="0 0 1000 1000">
  <defs>
    <style>
      .cls-1 {
        fill-rule: evenodd;
      }
    </style>
  </defs>
  <path id="Fond_2" data-name="Fond 2" class="cls-1" d="M494,18c16.069,8.112,24.654,23.1,35,37l19,18c20.289,26.881,47.656,45.959,68,73,3.9,5.186,10.763,8.07,16,12,9.653,7.243,16.513,18.444,24,28,4.455,5.687,12.576,9.13,17,15,22.553,29.924,51.739,53.737,78,80,15,15,27.122,32.884,42,48l33,33c13.434,10.087,26.235,20.325,35,35H789c-0.713.566-.042,1.442-2,1v-1c-8.074-2.915-14.254-13.254-20-19-15.606-15.607-35.082-29.967-47-49l-55-54c-5.755-5.755-10.5-10.818-15-18l-22-21v-3c-3.929-6.271-15.388-14.862-22-19-5.137-3.215-8.673-9.692-12-15l-30-29q-15.5-15.5-31-31c-1.611-1.613-4.5-2.312-6-4-7.667-8.621-19.792-32.451-33-34-9.49,12.932-24.224,22.221-35,34-2.635,2.88-3.386,7.065-6,10-2.111,2.37-5.855,3.655-8,6-2.634,2.88-3.386,7.065-6,10-4.621,5.187-11.308,8.871-16,14-2.635,2.88-3.386,7.065-6,10-2.131,2.392-5.721,3.72-8,6-9.666,9.668-18.333,20.333-28,30-4.954,4.954-11.281,8.842-16,14-5.316,5.811-9.118,12.832-14,19-4.426,5.592-12.092,9.683-17,15-5.4,5.854-9.4,12.4-15,18l-11,10c-10.351,16.517-26.6,28.407-40,42-2.289,2.322-2.1,3.967-4,7l-17,16c-12,12-23.368,24.621-35,37H140v-2c11.813-7.557,27.2-29.358,36-41l28-27a349.794,349.794,0,0,0,29-33l12-10a297.257,297.257,0,0,0,27-31c3.623-4.8,10.165-7.5,14-12,4.754-5.583,8.547-11.071,13-17,4.741-6.313,12.456-10.423,18-16,3.328-3.347,5.141-8.188,8-12,4.723-6.3,11.083-11.492,16-18l42-41a304.914,304.914,0,0,0,28-33l21-20c7.256-9.6,14.71-18.333,22-28C465.346,42.954,483.882,34.861,494,18ZM210,409h37V825H744V410c9.58-3.212,26.492-1.083,38-1V859H210V409Z"/>
</svg>
