<svg xmlns="http://www.w3.org/2000/svg" width="1024" height="1024" viewBox="0 0 1024 1024">
  <defs>
    <style>
      .cls-1 {
        fill-rule: evenodd;
      }
    </style>
  </defs>
  <path id="Fond_2" data-name="Fond 2" class="cls-1" d="M705.869,419.339V719.367c-9.173,34.025-32.847,64.868-63.435,77.654-19.186,8.019-42.877,3.545-66.96,3.53H286.491c-23.446.009-52.669,6.338-72.246-1.765-55.533-22.988-73.166-87.348-63.435-169.427l15.859-14.119c32.945-14.783,88.923-5.393,130.4-5.295V389.337c-0.046-43.039-5.185-86.351,12.334-114.717,11.949-19.346,33.361-41.691,56.387-49.416,25.458-8.541,67.115-.2,93.391,0H672.389c47.295,0,108.411-6.266,142.73,8.825C849.765,249.263,864.2,284,873.268,325.8c6.994,32.242-9.625,81.7-28.194,88.243C825.238,429.221,738.436,419.542,705.869,419.339ZM344.64,609.945H483.845c26.946,0,50.861-1.7,61.674,14.119,26.869,39.307-7.592,117.174,47.576,132.365,28.437,7.83,60.474-22.388,65.2-38.827V313.448c3.951-14.448,13.923-26.546,17.621-42.357H388.692c-11.822,16.245-36.457,17.315-44.052,38.827-8.862,25.1,0,62.491,0,90.008V609.945ZM705.869,373.453H825.691c1.048-44.178-1.864-80.728-29.955-95.3-37.186-19.293-82.207,12.458-89.867,40.592v54.711Z"/>
</svg>
