<svg xmlns="http://www.w3.org/2000/svg" width="1000" height="1000" viewBox="0 0 1000 1000">
  <defs>
    <style>
      .cls-1 {
        fill-rule: evenodd;
      }
    </style>
  </defs>
  <path id="Fond_3" data-name="Fond 3" class="cls-1" d="M641,24c53.663-1.3,112.786,15.945,146,36,18.924,11.427,37.636,19.513,55,32,52.837,38,88.059,90.7,113,157,25,66.466,25.758,162.145-1,228-31.227,76.852-81.269,130.665-148,172-18.142,11.237-46.643,23-68,30-13.031,4.272-27.659,5.5-40,9-8.046,2.283-15.773-.09-25,2-17.068,3.867-42.974,3.987-59,0l-26-1c-27.977-6.672-55.349-14.579-79-25-14.543-6.408-41.133-16.8-51-27-9.356,3.322-17.288,16.287-24,23l-57,57c-66.831,66.835-134.173,133.16-201,200l-46,46c-25.907,14.764-65.953,6.508-80-13-14.482-20.112-12.117-49.171-1-70l28-28L289,641l63-63c3.148-3.148,20.461-20.348,19-21-1.549-4.791-5.545-7.332-8-11-7.286-10.884-13.478-22.885-20-34-12.583-21.442-19.673-50.41-27-76-13.056-45.6-11.015-113.029,1-157C347.335,167.983,415.922,90.106,515,48c21.891-9.3,47.887-14.2,72-20l34-3C626.8,24.884,637.059,26.45,641,24Zm-17,94c-6.291,3.961-17.733.942-26,3-15.231,3.791-33.041,6.912-47,13-64.668,28.2-109.895,75.114-137,141-6.457,15.7-8.822,36.46-13,53v17c-6.042,27.884,2.938,60.43,10,82,24.94,76.181,62.318,117.808,131,150,3.3,1.549,6.391,5.456,10,7,13.888,5.941,31.249,9.12,46,13,10.6,2.79,21.132-.545,33,2,6.486,1.391,20.972,2.857,29,1,21.337-4.935,42.488-5.379,61-13,64.483-26.544,116.408-70.781,143-135,7.139-17.24,10.316-34.9,15-54q0.5-8,1-16c7.836-35.837-4.679-82.885-14-106-3.984-9.878-5.266-18.837-10-28-32.511-62.935-90.9-106.629-167-126C670.5,117.291,646.32,118.03,624,118Z"/>
</svg>
